<mxfile host="app.diagrams.net" modified="2023-04-10T22:05:50.409Z" agent="Mozilla/5.0 (Windows NT 10.0; Win64; x64) AppleWebKit/537.36 (KHTML, like Gecko) Chrome/112.0.0.0 Safari/537.36" etag="s34nTv_dsbg4tMZyWWvc" version="21.1.5" type="device">
  <diagram name="Page-1" id="jH8bfitSXT5ogyVSsC07">
    <mxGraphModel dx="1363" dy="873" grid="1" gridSize="10" guides="1" tooltips="1" connect="1" arrows="1" fold="1" page="1" pageScale="1" pageWidth="827" pageHeight="1169" math="0" shadow="0">
      <root>
        <mxCell id="0" />
        <mxCell id="1" parent="0" />
        <mxCell id="RHuvFV9LdQDyN-JIfS1L-3" style="edgeStyle=orthogonalEdgeStyle;rounded=0;orthogonalLoop=1;jettySize=auto;html=1;exitX=1;exitY=0.5;exitDx=0;exitDy=0;entryX=0;entryY=0.5;entryDx=0;entryDy=0;" edge="1" parent="1" source="RHuvFV9LdQDyN-JIfS1L-1" target="RHuvFV9LdQDyN-JIfS1L-8">
          <mxGeometry relative="1" as="geometry">
            <mxPoint x="440" y="340" as="targetPoint" />
            <Array as="points">
              <mxPoint x="430" y="340" />
              <mxPoint x="430" y="340" />
            </Array>
          </mxGeometry>
        </mxCell>
        <mxCell id="RHuvFV9LdQDyN-JIfS1L-1" value="&lt;font style=&quot;font-size: 25px;&quot;&gt;FOC&lt;/font&gt;" style="rounded=0;whiteSpace=wrap;html=1;" vertex="1" parent="1">
          <mxGeometry x="270" y="310" width="120" height="60" as="geometry" />
        </mxCell>
        <mxCell id="RHuvFV9LdQDyN-JIfS1L-10" style="edgeStyle=orthogonalEdgeStyle;rounded=0;orthogonalLoop=1;jettySize=auto;html=1;exitX=1;exitY=0.5;exitDx=0;exitDy=0;entryX=0;entryY=0.5;entryDx=0;entryDy=0;" edge="1" parent="1" source="RHuvFV9LdQDyN-JIfS1L-8" target="RHuvFV9LdQDyN-JIfS1L-9">
          <mxGeometry relative="1" as="geometry" />
        </mxCell>
        <mxCell id="RHuvFV9LdQDyN-JIfS1L-8" value="" style="rounded=0;whiteSpace=wrap;html=1;" vertex="1" parent="1">
          <mxGeometry x="440" y="310" width="60" height="60" as="geometry" />
        </mxCell>
        <mxCell id="RHuvFV9LdQDyN-JIfS1L-13" style="edgeStyle=orthogonalEdgeStyle;rounded=0;orthogonalLoop=1;jettySize=auto;html=1;exitX=1;exitY=0.5;exitDx=0;exitDy=0;" edge="1" parent="1" source="RHuvFV9LdQDyN-JIfS1L-12">
          <mxGeometry relative="1" as="geometry">
            <mxPoint x="180" y="340" as="targetPoint" />
          </mxGeometry>
        </mxCell>
        <mxCell id="RHuvFV9LdQDyN-JIfS1L-12" value="&lt;font style=&quot;font-size: 18px;&quot;&gt;&lt;b&gt;0&lt;/b&gt;&lt;/font&gt;" style="rounded=0;whiteSpace=wrap;html=1;" vertex="1" parent="1">
          <mxGeometry x="110" y="325" width="30" height="30" as="geometry" />
        </mxCell>
        <mxCell id="RHuvFV9LdQDyN-JIfS1L-29" style="edgeStyle=orthogonalEdgeStyle;rounded=0;orthogonalLoop=1;jettySize=auto;html=1;exitX=1;exitY=0.5;exitDx=0;exitDy=0;entryX=0;entryY=0.5;entryDx=0;entryDy=0;" edge="1" parent="1" source="RHuvFV9LdQDyN-JIfS1L-16" target="RHuvFV9LdQDyN-JIfS1L-1">
          <mxGeometry relative="1" as="geometry" />
        </mxCell>
        <mxCell id="RHuvFV9LdQDyN-JIfS1L-16" value="" style="ellipse;whiteSpace=wrap;html=1;" vertex="1" parent="1">
          <mxGeometry x="180" y="320" width="40" height="40" as="geometry" />
        </mxCell>
        <mxCell id="RHuvFV9LdQDyN-JIfS1L-18" value="" style="group" vertex="1" connectable="0" parent="1">
          <mxGeometry x="540" y="300" width="90" height="80" as="geometry" />
        </mxCell>
        <mxCell id="RHuvFV9LdQDyN-JIfS1L-9" value="&lt;font style=&quot;font-size: 18px;&quot;&gt;&lt;b&gt;u&lt;/b&gt;&lt;/font&gt;" style="rounded=0;whiteSpace=wrap;html=1;align=left;" vertex="1" parent="RHuvFV9LdQDyN-JIfS1L-18">
          <mxGeometry width="90" height="80" as="geometry" />
        </mxCell>
        <mxCell id="RHuvFV9LdQDyN-JIfS1L-11" value="&lt;font style=&quot;font-size: 18px;&quot;&gt;&lt;b&gt;θ&lt;br&gt;˙θ&lt;br&gt;˙φ&lt;/b&gt;&lt;/font&gt;" style="text;html=1;strokeColor=none;fillColor=none;align=center;verticalAlign=middle;whiteSpace=wrap;rounded=0;" vertex="1" parent="RHuvFV9LdQDyN-JIfS1L-18">
          <mxGeometry x="60" width="30" height="80" as="geometry" />
        </mxCell>
        <mxCell id="RHuvFV9LdQDyN-JIfS1L-27" style="edgeStyle=orthogonalEdgeStyle;rounded=0;orthogonalLoop=1;jettySize=auto;html=1;exitX=1;exitY=0.5;exitDx=0;exitDy=0;entryX=0.5;entryY=1;entryDx=0;entryDy=0;" edge="1" parent="1" source="RHuvFV9LdQDyN-JIfS1L-19" target="RHuvFV9LdQDyN-JIfS1L-16">
          <mxGeometry relative="1" as="geometry" />
        </mxCell>
        <mxCell id="RHuvFV9LdQDyN-JIfS1L-19" value="" style="triangle;whiteSpace=wrap;html=1;rotation=-180;" vertex="1" parent="1">
          <mxGeometry x="430" y="410" width="80" height="80" as="geometry" />
        </mxCell>
        <mxCell id="RHuvFV9LdQDyN-JIfS1L-21" value="&lt;font style=&quot;font-size: 25px;&quot;&gt;&lt;b&gt;K&lt;/b&gt;&lt;/font&gt;" style="text;html=1;strokeColor=none;fillColor=none;align=center;verticalAlign=middle;whiteSpace=wrap;rounded=0;" vertex="1" parent="1">
          <mxGeometry x="450" y="435" width="60" height="30" as="geometry" />
        </mxCell>
        <mxCell id="RHuvFV9LdQDyN-JIfS1L-26" style="edgeStyle=orthogonalEdgeStyle;rounded=0;orthogonalLoop=1;jettySize=auto;html=1;exitX=0;exitY=0.5;exitDx=0;exitDy=0;entryX=1;entryY=0.5;entryDx=0;entryDy=0;" edge="1" parent="1" source="RHuvFV9LdQDyN-JIfS1L-22" target="RHuvFV9LdQDyN-JIfS1L-21">
          <mxGeometry relative="1" as="geometry" />
        </mxCell>
        <mxCell id="RHuvFV9LdQDyN-JIfS1L-22" value="" style="rounded=0;whiteSpace=wrap;html=1;fillColor=#000000;" vertex="1" parent="1">
          <mxGeometry x="570" y="420" width="10" height="60" as="geometry" />
        </mxCell>
        <mxCell id="RHuvFV9LdQDyN-JIfS1L-23" style="edgeStyle=orthogonalEdgeStyle;rounded=0;orthogonalLoop=1;jettySize=auto;html=1;exitX=0.75;exitY=1;exitDx=0;exitDy=0;entryX=1;entryY=0.25;entryDx=0;entryDy=0;" edge="1" parent="1" source="RHuvFV9LdQDyN-JIfS1L-54" target="RHuvFV9LdQDyN-JIfS1L-22">
          <mxGeometry relative="1" as="geometry">
            <Array as="points">
              <mxPoint x="730" y="415" />
              <mxPoint x="730" y="435" />
            </Array>
          </mxGeometry>
        </mxCell>
        <mxCell id="RHuvFV9LdQDyN-JIfS1L-24" style="edgeStyle=orthogonalEdgeStyle;rounded=0;orthogonalLoop=1;jettySize=auto;html=1;exitX=1;exitY=0.5;exitDx=0;exitDy=0;entryX=0.25;entryY=0;entryDx=0;entryDy=0;" edge="1" parent="1" source="RHuvFV9LdQDyN-JIfS1L-11" target="RHuvFV9LdQDyN-JIfS1L-54">
          <mxGeometry relative="1" as="geometry">
            <Array as="points">
              <mxPoint x="703" y="340" />
              <mxPoint x="703" y="355" />
            </Array>
          </mxGeometry>
        </mxCell>
        <mxCell id="RHuvFV9LdQDyN-JIfS1L-25" style="edgeStyle=orthogonalEdgeStyle;rounded=0;orthogonalLoop=1;jettySize=auto;html=1;exitX=1;exitY=0.75;exitDx=0;exitDy=0;entryX=1;entryY=0.75;entryDx=0;entryDy=0;" edge="1" parent="1" source="RHuvFV9LdQDyN-JIfS1L-11" target="RHuvFV9LdQDyN-JIfS1L-22">
          <mxGeometry relative="1" as="geometry">
            <mxPoint x="590" y="470" as="targetPoint" />
            <Array as="points">
              <mxPoint x="680" y="360" />
              <mxPoint x="680" y="465" />
            </Array>
          </mxGeometry>
        </mxCell>
        <mxCell id="RHuvFV9LdQDyN-JIfS1L-33" value="&lt;font style=&quot;font-size: 15px;&quot;&gt;&lt;b&gt;+&lt;/b&gt;&lt;/font&gt;" style="text;html=1;strokeColor=none;fillColor=none;align=center;verticalAlign=middle;whiteSpace=wrap;rounded=0;" vertex="1" parent="1">
          <mxGeometry x="180" y="330" width="20" height="20" as="geometry" />
        </mxCell>
        <mxCell id="RHuvFV9LdQDyN-JIfS1L-35" value="&lt;font style=&quot;font-size: 15px;&quot;&gt;&lt;b&gt;-&lt;/b&gt;&lt;/font&gt;" style="text;html=1;strokeColor=none;fillColor=none;align=center;verticalAlign=middle;whiteSpace=wrap;rounded=0;" vertex="1" parent="1">
          <mxGeometry x="190" y="340" width="20" height="20" as="geometry" />
        </mxCell>
        <mxCell id="RHuvFV9LdQDyN-JIfS1L-40" value="&lt;font style=&quot;font-size: 15px;&quot;&gt;&lt;i&gt;Ref&lt;/i&gt;&lt;/font&gt;" style="text;html=1;strokeColor=none;fillColor=none;align=center;verticalAlign=middle;whiteSpace=wrap;rounded=0;" vertex="1" parent="1">
          <mxGeometry x="95" y="355" width="60" height="30" as="geometry" />
        </mxCell>
        <mxCell id="RHuvFV9LdQDyN-JIfS1L-41" value="&lt;font style=&quot;font-size: 15px;&quot;&gt;&lt;i&gt;Inverted Pendulum&lt;/i&gt;&lt;/font&gt;" style="text;html=1;strokeColor=none;fillColor=none;align=center;verticalAlign=middle;whiteSpace=wrap;rounded=0;" vertex="1" parent="1">
          <mxGeometry x="505" y="380" width="160" height="30" as="geometry" />
        </mxCell>
        <mxCell id="RHuvFV9LdQDyN-JIfS1L-42" value="&lt;font style=&quot;font-size: 15px;&quot;&gt;&lt;i&gt;Stabilization LQR&lt;/i&gt;&lt;/font&gt;" style="text;html=1;strokeColor=none;fillColor=none;align=center;verticalAlign=middle;whiteSpace=wrap;rounded=0;" vertex="1" parent="1">
          <mxGeometry x="344" y="470" width="140" height="30" as="geometry" />
        </mxCell>
        <mxCell id="RHuvFV9LdQDyN-JIfS1L-45" value="&lt;font style=&quot;font-size: 15px;&quot;&gt;&lt;i&gt;BLDC Motor Controller&lt;/i&gt;&lt;/font&gt;" style="text;html=1;strokeColor=none;fillColor=none;align=center;verticalAlign=middle;whiteSpace=wrap;rounded=0;" vertex="1" parent="1">
          <mxGeometry x="250" y="370" width="160" height="30" as="geometry" />
        </mxCell>
        <mxCell id="RHuvFV9LdQDyN-JIfS1L-46" value="&lt;font style=&quot;font-size: 15px;&quot;&gt;&lt;i&gt;Saturation&lt;/i&gt;&lt;/font&gt;" style="text;html=1;strokeColor=none;fillColor=none;align=center;verticalAlign=middle;whiteSpace=wrap;rounded=0;" vertex="1" parent="1">
          <mxGeometry x="390" y="280" width="160" height="30" as="geometry" />
        </mxCell>
        <mxCell id="RHuvFV9LdQDyN-JIfS1L-52" value="" style="group" vertex="1" connectable="0" parent="1">
          <mxGeometry x="450" y="320" width="40" height="40" as="geometry" />
        </mxCell>
        <mxCell id="RHuvFV9LdQDyN-JIfS1L-49" value="" style="endArrow=none;html=1;rounded=0;strokeWidth=2;" edge="1" parent="RHuvFV9LdQDyN-JIfS1L-52">
          <mxGeometry width="50" height="50" relative="1" as="geometry">
            <mxPoint y="20" as="sourcePoint" />
            <mxPoint x="40" y="20" as="targetPoint" />
          </mxGeometry>
        </mxCell>
        <mxCell id="RHuvFV9LdQDyN-JIfS1L-50" value="" style="endArrow=none;html=1;rounded=0;strokeWidth=2;" edge="1" parent="RHuvFV9LdQDyN-JIfS1L-52">
          <mxGeometry width="50" height="50" relative="1" as="geometry">
            <mxPoint x="20" y="40" as="sourcePoint" />
            <mxPoint x="20" as="targetPoint" />
          </mxGeometry>
        </mxCell>
        <mxCell id="RHuvFV9LdQDyN-JIfS1L-51" value="" style="endArrow=none;html=1;rounded=0;" edge="1" parent="RHuvFV9LdQDyN-JIfS1L-52">
          <mxGeometry width="50" height="50" relative="1" as="geometry">
            <mxPoint y="40" as="sourcePoint" />
            <mxPoint x="40" as="targetPoint" />
            <Array as="points">
              <mxPoint x="10" y="40" />
              <mxPoint x="30" />
            </Array>
          </mxGeometry>
        </mxCell>
        <mxCell id="RHuvFV9LdQDyN-JIfS1L-56" style="edgeStyle=orthogonalEdgeStyle;rounded=0;orthogonalLoop=1;jettySize=auto;html=1;exitX=0.25;exitY=1;exitDx=0;exitDy=0;" edge="1" parent="1" source="RHuvFV9LdQDyN-JIfS1L-54">
          <mxGeometry relative="1" as="geometry">
            <mxPoint x="579" y="450" as="targetPoint" />
            <Array as="points">
              <mxPoint x="703" y="450" />
              <mxPoint x="579" y="450" />
            </Array>
          </mxGeometry>
        </mxCell>
        <mxCell id="RHuvFV9LdQDyN-JIfS1L-54" value="Kalman&lt;br&gt;Filter" style="rounded=0;whiteSpace=wrap;html=1;" vertex="1" parent="1">
          <mxGeometry x="690" y="355" width="50" height="60" as="geometry" />
        </mxCell>
        <mxCell id="RHuvFV9LdQDyN-JIfS1L-55" style="edgeStyle=orthogonalEdgeStyle;rounded=0;orthogonalLoop=1;jettySize=auto;html=1;exitX=1;exitY=0.25;exitDx=0;exitDy=0;entryX=0.75;entryY=0;entryDx=0;entryDy=0;" edge="1" parent="1" source="RHuvFV9LdQDyN-JIfS1L-11" target="RHuvFV9LdQDyN-JIfS1L-54">
          <mxGeometry relative="1" as="geometry" />
        </mxCell>
      </root>
    </mxGraphModel>
  </diagram>
</mxfile>
